<?xml version="1.0" encoding="utf-8"?>
<svg viewBox="0 0 16 16" fill="currentColor" xmlns="http://www.w3.org/2000/svg" xmlns:bx="https://boxy-svg.com">
  <path fill-rule="evenodd" d="M8 3.293l6 6V13.5a1.5 1.5 0 0 1-1.5 1.5h-9A1.5 1.5 0 0 1 2 13.5V9.293l6-6zm5-.793V6l-2-2V2.5a.5.5 0 0 1 .5-.5h1a.5.5 0 0 1 .5.5z" style="fill: #53c68c;"/>
  <path fill-rule="evenodd" d="M7.293 1.5a1 1 0 0 1 1.414 0l6.647 6.646a.5.5 0 0 1-.708.708L8 2.207 1.354 8.854a.5.5 0 1 1-.708-.708L7.293 1.5z" style="fill: #53c68c;"/>
  <path d="M 5.854 8.798 C 5.854 8.617 6.002 8.469 6.183 8.469 L 6.841 8.469 C 7.023 8.469 7.17 8.617 7.17 8.798 L 7.17 9.456 C 7.17 9.638 7.023 9.785 6.841 9.785 L 6.183 9.785 C 6.002 9.785 5.854 9.638 5.854 9.456 L 5.854 8.798 Z M 7.499 8.798 C 7.499 8.617 7.647 8.469 7.828 8.469 L 8.487 8.469 C 8.668 8.469 8.815 8.617 8.815 8.798 L 8.815 9.456 C 8.815 9.638 8.668 9.785 8.487 9.785 L 7.828 9.785 C 7.647 9.785 7.499 9.638 7.499 9.456 L 7.499 8.798 Z M 9.145 8.798 C 9.145 8.617 9.292 8.469 9.474 8.469 L 10.132 8.469 C 10.313 8.469 10.461 8.617 10.461 8.798 L 10.461 9.456 C 10.461 9.638 10.313 9.785 10.132 9.785 L 9.474 9.785 C 9.292 9.785 9.145 9.638 9.145 9.456 L 9.145 8.798 Z M 5.854 10.443 C 5.854 10.262 6.002 10.115 6.183 10.115 L 6.841 10.115 C 7.023 10.115 7.17 10.262 7.17 10.443 L 7.17 11.102 C 7.17 11.283 7.023 11.431 6.841 11.431 L 6.183 11.431 C 6.002 11.431 5.854 11.283 5.854 11.102 L 5.854 10.443 Z M 7.499 10.443 C 7.499 10.262 7.647 10.115 7.828 10.115 L 8.487 10.115 C 8.668 10.115 8.815 10.262 8.815 10.443 L 8.815 11.102 C 8.815 11.283 8.668 11.431 8.487 11.431 L 7.828 11.431 C 7.647 11.431 7.499 11.283 7.499 11.102 L 7.499 10.443 Z M 9.145 10.443 C 9.145 10.262 9.292 10.115 9.474 10.115 L 10.132 10.115 C 10.313 10.115 10.461 10.262 10.461 10.443 L 10.461 11.102 C 10.461 11.283 10.313 11.431 10.132 11.431 L 9.474 11.431 C 9.292 11.431 9.145 11.283 9.145 11.102 L 9.145 10.443 Z M 5.854 12.089 C 5.854 11.907 6.002 11.76 6.183 11.76 L 6.841 11.76 C 7.023 11.76 7.17 11.907 7.17 12.089 L 7.17 12.747 C 7.17 12.929 7.023 13.076 6.841 13.076 L 6.183 13.076 C 6.002 13.076 5.854 12.929 5.854 12.747 L 5.854 12.089 Z M 7.499 12.089 C 7.499 11.907 7.647 11.76 7.828 11.76 L 8.487 11.76 C 8.668 11.76 8.815 11.907 8.815 12.089 L 8.815 12.747 C 8.815 12.929 8.668 13.076 8.487 13.076 L 7.828 13.076 C 7.647 13.076 7.499 12.929 7.499 12.747 L 7.499 12.089 Z M 9.145 12.089 C 9.145 11.907 9.292 11.76 9.474 11.76 L 10.132 11.76 C 10.313 11.76 10.461 11.907 10.461 12.089 L 10.461 12.747 C 10.461 12.929 10.313 13.076 10.132 13.076 L 9.474 13.076 C 9.292 13.076 9.145 12.929 9.145 12.747 L 9.145 12.089 Z" style="filter: none; fill: #53c68c;";" bx:origin="0.491643 0.5"/>
</svg>